<?xml version="1.0" encoding="UTF-8" standalone="no"?>
<!-- Created with Inkscape (http://www.inkscape.org/) -->

<svg
   version="1.1"
   id="svg1"
   width="346.83954"
   height="1022.7133"
   viewBox="0 0 346.83954 1022.7133"
   xmlns="http://www.w3.org/2000/svg"
   xmlns:svg="http://www.w3.org/2000/svg">
  <defs
     id="defs1" />
  <g
     id="g1"
     transform="translate(-1.5188732,-2.6362069)">
    <path
       style="fill:#000000;stroke-width:40;stroke-dasharray:none"
       d="m 170.42334,1024.9187 c -2.13734,-0.5317 -3.18497,-1.4776 -3.18497,-2.8757 0,-1.0511 0.0951,-1.1661 1.2,-1.4497 0.66,-0.1694 1.48635,-0.3566 1.83633,-0.416 0.34998,-0.059 0.6815,-0.3425 0.73671,-0.6292 0.0886,-0.46 -0.56891,-0.5447 -5.59633,-0.7208 -24.98358,-0.8751 -46.65039,-4.1224 -67.450428,-10.1088 -9.11214,-2.6226 -17.33243,-5.7328 -24.48628,-9.26449 -1.672,-0.8255 -3.292,-1.4445 -3.6,-1.3756 -0.33121,0.074 -0.56,-0.062 -0.56,-0.3336 0,-0.2524 -0.9,-0.9371 -2,-1.5217 -6.33758,-3.3676 -17.24424,-10.752 -22.61629,-15.3124 -0.95497,-0.8107 -2.17897,-1.8023 -2.72,-2.2037 -2.03126,-1.5067 -10.56053,-10.1477 -13.14556,-13.3176 -0.70298,-0.8621 -1.42367,-1.7261 -1.60153,-1.92 -0.48841,-0.5326 -4.35537,-5.8535 -5.83773,-8.0327 -3.85162,-5.6621 -8.0707,-13.4938 -10.94681,-20.32 -2.57069,-6.1013 -2.35547,-5.5388 -3.30607,-8.64 -0.45856,-1.496 -1.12526,-3.656 -1.48153,-4.8 -2.46437,-7.913 -4.2089,-19.2303 -4.13781,-26.8431 l 0.0467,-4.9969 0.27087,4.64 c 1.15374,19.7637 6.93521,38.522 17.06428,55.3662 2.38564,3.9672 7.53462,11.4233 8.96813,12.9865 0.17786,0.1939 0.89855,1.0579 1.60153,1.92 2.82701,3.4667 10.78714,11.4433 13.92186,13.9506 0.968,0.7743 2.84,2.2784 4.16,3.3425 11.48987,9.262 27.9301,18.33109 42.23999,23.30139 14.939168,5.1889 38.215468,10.0286 55.360008,11.5108 8.60491,0.7439 12.64475,0.9974 21.21695,1.3316 l 5.37696,0.2096 -0.097,1.1577 c -0.0726,0.867 -0.25769,1.1846 -0.73696,1.2647 -3.14924,0.5263 -3.73491,1.1765 -2.17284,2.4123 1.12119,0.8871 3.55443,1.4602 6.17284,1.4541 2.64991,-0.01 4.86476,-0.3797 4.08,-0.6879 -0.308,-0.121 -0.56,-0.5125 -0.56,-0.8701 0,-0.5143 0.2082,-0.65 0.99731,-0.65 0.89124,0 0.98104,0.085 0.84437,0.8 -0.0893,0.4671 -0.005,0.7971 0.2027,0.793 0.78798,-0.016 3.04534,-1.2585 3.36272,-1.8515 0.30332,-0.5668 0.21404,-0.6544 -0.85418,-0.8382 -3.07846,-0.5296 -2.95292,-0.4539 -2.95292,-1.7789 v -1.2247 l 2.96,-0.1695 c 27.74313,-1.5894 40.65333,-3.3132 59.0308,-7.8821 20.28418,-5.0429 35.36029,-11.64649 51.74332,-22.66439 2.47823,-1.6667 4.57788,-3.1258 4.66588,-3.2424 0.088,-0.1167 0.664,-0.5616 1.28,-0.9889 1.76369,-1.2231 7.26086,-5.7735 10.19691,-8.4406 2.60574,-2.3671 3.40709,-2.7798 4.08383,-2.103 0.37755,0.3775 1.91065,-1.1944 6.35926,-6.5202 2.36507,-2.8315 3.00909,-3.4237 3.602,-3.3122 1.22542,0.2303 3.43278,-1.864 6.35569,-6.0301 1.57724,-2.248 2.63607,-5.0593 2.04348,-5.4255 -0.58807,-0.3635 -0.3341,-1.0944 1.19443,-3.4375 1.88859,-2.895 3.09958,-5.3505 3.00015,-6.0833 -0.0418,-0.308 0.0598,-0.56 0.22572,-0.56 0.16594,0 0.28766,-0.756 0.27049,-1.68 -0.0206,-1.1081 0.20177,-2.1702 0.6532,-3.12 2.45683,-5.1692 5.20797,-13.0702 6.79027,-19.5009 0.7982,-3.244 0.79706,-3.2191 0.14725,-3.2191 -0.38032,0 -0.46623,-0.1906 -0.32437,-0.72 0.10612,-0.396 0.19492,-0.9888 0.19732,-1.3173 0.003,-0.4265 0.17663,-0.5523 0.60688,-0.4397 0.52698,0.1378 0.65017,-0.1379 0.98269,-2.1992 0.20909,-1.2962 0.28853,-2.6823 0.17652,-3.0802 -0.1592,-0.5656 -0.1303,-0.6188 0.13242,-0.2436 0.2776,0.3965 0.33691,0.3548 0.34096,-0.24 0.003,-0.4288 -0.1892,-0.72 -0.4751,-0.72 -0.27548,0 -0.48,-0.2886 -0.48,-0.6773 0,-0.5198 0.14886,-0.6384 0.64,-0.5099 0.52612,0.1375 0.64,0.01 0.64,-0.7181 0,-0.4869 0.0916,-1.5534 0.20349,-2.37 0.17053,-1.2441 0.11868,-1.4847 -0.32,-1.4847 -0.39741,0 -0.52349,-0.3083 -0.52349,-1.28 0,-1.5222 0.70479,-1.6377 0.97655,-0.16 0.3447,1.8743 0.69007,-10.5298 0.43501,-15.6236 -0.14256,-2.847 -0.3125,-4.8524 -0.37764,-4.4564 -0.18104,1.1006 -1.03392,0.9027 -1.03392,-0.24 0,-0.64 0.16,-0.96 0.48,-0.96 0.34793,0 0.46979,-0.3301 0.44288,-1.2 -0.0204,-0.66 -0.10298,-0.948 -0.18347,-0.64 -0.0805,0.308 -0.35178,0.56 -0.60287,0.56 -0.32775,0 -0.45654,-0.4062 -0.45654,-1.44 0,-1.0666 0.12444,-1.44 0.48,-1.44 0.264,0 0.46863,-0.252 0.45474,-0.56 -0.0151,-0.3345 -0.0902,-0.3989 -0.18667,-0.16 -0.32794,0.8128 -0.99015,0.3648 -1.18268,-0.8 -0.32004,-1.9362 -0.24684,-2.64 0.27461,-2.64 0.29544,0 0.46573,-0.2768 0.44288,-0.72 -0.0279,-0.5418 -0.0733,-0.5814 -0.18347,-0.16 -0.23909,0.915 -1.05898,0.6681 -1.06293,-0.32 -0.002,-0.484 -0.0928,-1.42 -0.20187,-2.08 -0.16604,-1.0045 -0.10726,-1.2 0.36084,-1.2 0.42632,0 0.51128,-0.171 0.35754,-0.72 -0.11092,-0.396 -0.28882,-1.314 -0.39535,-2.0401 -0.15392,-1.049 -0.30786,-1.2902 -0.74969,-1.1747 -0.42314,0.1107 -0.60029,-0.1091 -0.74134,-0.9199 -0.10194,-0.5859 -0.28463,-1.5333 -0.40598,-2.1053 -0.18201,-0.8579 -0.12361,-1.04 0.33361,-1.04 0.37392,0 0.49104,-0.1646 0.36,-0.5061 -0.10683,-0.2784 -0.19424,-0.7824 -0.19424,-1.12 0,-0.3834 -0.22173,-0.6139 -0.59068,-0.6139 -0.45913,0 -0.74419,-0.5283 -1.28,-2.3723 -0.81879,-2.818 -0.83582,-3.0677 -0.20932,-3.0677 0.264,0 0.48,-0.1305 0.48,-0.29 0,-0.1595 -0.288,-0.2147 -0.64,-0.1227 -0.44509,0.1164 -0.64,0.01 -0.64,-0.3499 0,-0.2846 0.216,-0.5174 0.48,-0.5174 0.264,0 0.48,-0.144 0.48,-0.32 0,-0.176 -0.27121,-0.32 -0.60268,-0.32 -0.35449,0 -0.68213,-0.2965 -0.79563,-0.72 -0.28155,-1.0506 -0.25062,-1.2 0.24835,-1.2 0.28325,0 0.39162,-0.2234 0.2924,-0.6028 -0.10678,-0.4083 -0.35521,-0.5511 -0.77004,-0.4427 -0.4167,0.109 -0.6124,-0.01 -0.6124,-0.3571 0,-0.2846 0.19603,-0.5174 0.43562,-0.5174 0.28635,0 0.3857,-0.2611 0.28993,-0.7621 -0.10133,-0.5301 -0.31282,-0.7185 -0.69453,-0.6187 -0.36194,0.095 -0.67862,-0.1413 -0.92993,-0.6929 -0.5039,-1.1059 -0.48063,-1.4463 0.0989,-1.4463 0.6087,0 0.6019,-0.1633 -0.0803,-1.9277 -0.41035,-1.0614 -0.7092,-1.4181 -1.11974,-1.3366 -0.33389,0.066 -0.56,-0.083 -0.56,-0.3687 0,-0.264 0.252,-0.5459 0.56,-0.6264 0.42141,-0.1101 0.38181,-0.1555 -0.16,-0.1834 -0.74097,-0.038 -1.00817,-0.8478 -0.352,-1.0665 0.27054,-0.09 0.27723,-0.3727 0.0253,-1.0667 -0.1885,-0.5192 -0.3541,-0.764 -0.368,-0.544 -0.0363,0.5745 -0.88079,0.4938 -1.11102,-0.1061 -0.30728,-0.8008 -0.23071,-1.0939 0.28576,-1.0939 0.57405,0 0.5819,-0.066 0.1263,-1.0661 -0.22997,-0.5048 -0.54713,-0.7257 -0.90665,-0.6317 -0.42541,0.1112 -0.71286,-0.2733 -1.2463,-1.6673 -0.82086,-2.145 -0.84383,-2.3949 -0.22021,-2.3949 0.39402,0 0.40942,-0.1398 0.0921,-0.8363 -0.20958,-0.4599 -0.43449,-0.6759 -0.49981,-0.48 -0.17324,0.5198 -1.02543,0.4364 -1.02543,-0.1002 0,-0.2511 0.20523,-0.5031 0.45607,-0.56 0.35624,-0.081 0.23019,-0.5922 -0.57597,-2.3365 -0.65269,-1.4123 -1.12132,-2.0886 -1.27495,-1.84 -0.13361,0.2162 -0.37842,0.393 -0.54404,0.393 -0.42851,0 -0.37456,-1.2021 0.0605,-1.3472 0.23954,-0.08 0.13632,-0.5478 -0.30586,-1.3866 -0.36709,-0.6964 -0.6738,-1.0862 -0.68158,-0.8662 -0.0371,1.0499 -0.94134,0.1488 -2.17414,-2.1667 -1.48346,-2.7862 -1.59691,-3.1933 -0.89004,-3.1933 0.31078,0 0.39927,-0.1842 0.26127,-0.5438 -0.13053,-0.3401 -0.2566,-0.4001 -0.33662,-0.16 -0.20642,0.6193 -1.09724,0.4556 -0.95907,-0.1762 0.0674,-0.308 0.28873,-0.5257 0.49195,-0.4838 0.22404,0.046 0.28791,-0.1364 0.16227,-0.4638 -0.13015,-0.3392 -0.2548,-0.3973 -0.33515,-0.1562 -0.18423,0.5527 -1.03461,0.4736 -1.03461,-0.096 0,-0.264 -0.12653,-0.48 -0.28118,-0.48 -0.15465,0 -0.46562,-0.4453 -0.69106,-0.9895 -0.32975,-0.7961 -0.33088,-1.0384 -0.006,-1.2393 0.63681,-0.3936 -0.13815,-1.5941 -0.90035,-1.3948 -0.39305,0.1028 -0.78901,-0.1015 -1.12419,-0.5801 -0.71333,-1.0184 -0.66788,-1.6703 0.10242,-1.4688 0.58891,0.154 0.58492,0.1086 -0.08,-0.9099 -0.38492,-0.5895 -0.74785,-0.9336 -0.80652,-0.7647 -0.0587,0.1689 -0.31066,0.3071 -0.56,0.3071 -0.60054,0 -0.5857,-0.8839 0.0171,-1.0165 0.38398,-0.084 0.34296,-0.3038 -0.22325,-1.1937 -0.38151,-0.5997 -0.74919,-0.9237 -0.81707,-0.72 -0.0679,0.2036 -0.31772,0.3702 -0.55519,0.3702 -0.59203,0 -0.96972,-1.2942 -0.46815,-1.6042 0.58756,-0.3631 0.0915,-0.9216 -0.64707,-0.7284 -0.43418,0.1135 -0.63968,0.01 -0.63968,-0.3234 0,-0.2699 0.13472,-0.5387 0.29937,-0.5973 0.28809,-0.1027 -2.93796,-5.5159 -3.96076,-6.6461 -0.27423,-0.303 -0.49861,-0.7196 -0.49861,-0.9258 0,-0.2061 -0.288,-0.6628 -0.64,-1.0148 -0.352,-0.352 -0.64,-0.496 -0.64,-0.32 0,0.5865 -0.66183,0.3301 -1.44524,-0.56 -0.89405,-1.0158 -0.99787,-1.5893 -0.31432,-1.7365 0.36634,-0.079 0.17659,-0.5595 -0.79898,-2.0235 -0.70368,-1.056 -1.27988,-1.74 -1.28044,-1.52 -5.6e-4,0.22 -0.20732,0.4 -0.45946,0.4 -0.56531,0 -1.01691,-1.2815 -0.5527,-1.5684 0.21587,-0.1334 0.22997,-0.3783 0.0392,-0.68 -0.20159,-0.3188 -0.2998,-0.342 -0.30311,-0.072 -0.003,0.22 -0.2209,0.4 -0.4849,0.4 -0.55954,0 -0.65347,-0.8489 -0.11383,-1.0288 0.22442,-0.075 -0.0664,-0.7974 -0.75132,-1.8666 -0.61462,-0.9596 -1.38038,-2.1737 -1.70168,-2.6981 -0.33108,-0.5404 -0.64102,-0.783 -0.71535,-0.56 -0.18235,0.5471 -1.03782,0.4951 -1.03782,-0.063 0,-0.2511 0.19938,-0.5031 0.44307,-0.56 0.30224,-0.071 -0.20632,-1.0579 -1.6,-3.1062 -1.12369,-1.6515 -2.04307,-2.8395 -2.04307,-2.64 0,0.1995 -0.216,0.3627 -0.48,0.3627 -0.264,0 -0.48,-0.216 -0.48,-0.48 0,-0.264 0.144,-0.48 0.32,-0.48 0.176,0 0.32,-0.1194 0.32,-0.2654 0,-0.1459 -0.29414,-0.2539 -0.65365,-0.24 -0.81934,0.032 -1.95101,-1.63006 -1.35948,-1.99646 0.28236,-0.17491 0.1336,-0.68308 -0.55075,-1.88133 -0.75072,-1.31447 -1.06702,-1.60785 -1.58686,-1.47191 -0.45462,0.11888 -0.64926,0.0147 -0.64926,-0.34754 0,-0.28453 -0.144,-0.51732 -0.32,-0.51732 -0.176,0 -0.32,-0.216 -0.32,-0.48 0,-0.264 0.21722,-0.48 0.48271,-0.48 0.4034,0 0.41672,-0.10568 0.0811,-0.64316 -0.22092,-0.35374 -0.45014,-0.49774 -0.50938,-0.32 -0.16933,0.50797 -1.01439,0.37731 -1.01439,-0.15684 0,-0.264 0.216,-0.48 0.48,-0.48 0.50725,0 0.66554,-0.51218 0.21429,-0.69333 -0.30527,-0.12255 -2.04102,-3.22707 -4.2641,-7.62667 -0.84484,-1.672 -1.53926,-2.86 -1.54314,-2.64 -0.0101,0.57478 -0.96705,0.49562 -0.96705,-0.08 0,-0.264 0.20361,-0.48 0.45247,-0.48 0.35935,0 0.31145,-0.33379 -0.23273,-1.62182 -0.37685,-0.892 -0.73647,-1.468 -0.79913,-1.28 -0.23058,0.69172 -0.90282,0.31202 -1.27632,-0.7209 -0.48392,-1.33823 -0.48069,-1.4277 0.056,-1.55382 0.34115,-0.0802 0.21505,-0.68243 -0.56,-2.67477 -0.78239,-2.01119 -1.12228,-2.54631 -1.56029,-2.45654 -0.64348,0.13189 -0.81382,-1.07421 -0.18147,-1.28499 0.63255,-0.21085 -0.32415,-3.12716 -1.02588,-3.12716 -0.56163,0 -0.95265,-0.60179 -0.95265,-1.46617 0,-0.24961 0.19106,-0.45383 0.42458,-0.45383 0.29751,0 0.37814,-0.31126 0.26941,-1.04 -0.0853,-0.572 -0.2164,-0.86 -0.29124,-0.64 -0.22012,0.64702 -1.04275,0.45769 -1.04275,-0.24 0,-0.37473 0.21333,-0.64 0.51469,-0.64 0.40822,0 0.46343,-0.18204 0.2669,-0.88 -0.13629,-0.484 -0.34762,-1.6 -0.46964,-2.48 -0.12201,-0.88 -0.24211,-1.42 -0.26689,-1.2 -0.0248,0.22 -0.26106,0.4 -0.52506,0.4 -0.33524,0 -0.48,-0.33778 -0.48,-1.12 0,-0.81536 0.13987,-1.12 0.51424,-1.12 0.33744,0 0.44746,-0.17402 0.32,-0.50617 -0.10683,-0.2784 -0.19424,-0.8544 -0.19424,-1.28 0,-0.47452 -0.18566,-0.77383 -0.48,-0.77383 -0.264,0 -0.48,-0.216 -0.48,-0.48 0,-0.264 0.216,-0.48 0.48,-0.48 0.36267,0 0.48,-0.39111 0.48,-1.6 0,-1.20889 -0.11733,-1.6 -0.48,-1.6 -0.29867,0 -0.48,-0.30222 -0.48,-0.8 0,-0.49778 0.18133,-0.8 0.48,-0.8 0.264,0 0.48,-0.0369 0.48,-0.082 0,-0.0451 0.21877,-1.95216 0.48615,-4.23795 0.32236,-2.75577 0.37627,-4.19262 0.16,-4.26471 -0.53223,-0.17741 -0.37111,-0.92871 0.23385,-1.09046 0.4005,-0.10708 0.73164,-0.86963 1.16264,-2.67732 0.91466,-3.83628 3.21764,-10.23637 5.64424,-15.68563 1.35149,-3.03494 2.11516,-5.14391 2.00928,-5.54882 -0.11389,-0.4355 -0.0164,-0.65315 0.29264,-0.65315 0.44625,0 1.23132,-1.52012 5.53637,-10.72 0.98831,-2.112 1.99177,-4.23472 2.22993,-4.71715 0.30038,-0.6085 0.3278,-0.94217 0.0895,-1.08944 -0.20356,-0.12581 -0.25048,-0.0618 -0.11517,0.15715 0.12558,0.20319 0.0758,0.36944 -0.11055,0.36944 -0.18639,0 -0.33889,-0.216 -0.33889,-0.48 0,-0.264 0.2795,-0.48 0.62112,-0.48 0.75384,0 1.13129,-0.50804 0.61466,-0.82733 -0.23399,-0.14462 -0.28894,-0.0928 -0.14634,0.13789 0.12558,0.20319 0.0758,0.36944 -0.11055,0.36944 -0.18639,0 -0.33889,-0.216 -0.33889,-0.48 0,-0.264 0.21093,-0.48 0.46874,-0.48 0.25781,0 0.62288,-0.288 0.81126,-0.64 0.23223,-0.43392 0.23585,-0.64 0.0113,-0.64 -0.18219,0 -0.33126,-0.288 -0.33126,-0.64 0,-0.40286 0.21333,-0.64 0.57574,-0.64 0.45056,0 0.8651,-0.85231 1.90659,-3.92 1.65946,-4.88791 2.03377,-6.32 1.65188,-6.32 -0.16182,0 -0.29421,-0.288 -0.29421,-0.64 0,-0.352 0.2063,-0.64 0.45844,-0.64 0.52224,0 0.63322,-0.29017 1.25454,-3.28 0.38052,-1.83108 0.38173,-2.16 0.008,-2.16 -0.24251,0 -0.44093,-0.216 -0.44093,-0.48 0,-0.264 0.198,-0.48 0.44,-0.48 1.39872,0 1.07535,-9.36292 -0.51115,-14.8 -0.24089,-0.82554 -0.53406,-1.2 -0.9395,-1.2 -0.38599,0 -0.58935,-0.23265 -0.58935,-0.67424 0,-0.45699 0.14925,-0.61696 0.46321,-0.49648 0.28974,0.11118 0.036,-0.64006 -0.67748,-2.00601 -0.90405,-1.73071 -1.26489,-2.15127 -1.73932,-2.0272 -0.68265,0.17851 -1.23867,-0.80531 -0.65797,-1.1642 0.573,-0.35413 -0.45709,-1.6063 -1.16839,-1.42029 -0.69995,0.18304 -1.48459,-0.65336 -1.23154,-1.31278 0.33885,-0.88303 -5.26081,-4.79209 -8.51116,-5.94154 -0.92254,-0.32625 -1.72535,-0.45909 -1.78402,-0.29522 -0.16705,0.46664 -1.01333,0.34877 -1.01333,-0.14114 0,-1.21742 -5.72758,-0.78098 -8.32852,0.63462 -2.33361,1.27011 -3.46508,2.74362 -6.08264,7.92138 -1.25764,2.4877 -2.80643,5.3871 -3.44175,6.4431 -5.04898,8.39211 -12.64093,14.37295 -22.68068,17.86755 -5.50213,1.91517 -10.67107,2.5812 -22.66641,2.92064 -10.08632,0.28542 -12.64,0.48872 -12.64,1.00633 0,0.24501 -0.23279,0.44548 -0.51732,0.44548 -0.34057,0 -0.46587,-0.19675 -0.36673,-0.57586 0.13517,-0.51688 -0.0752,-0.57042 -2.05434,-0.52282 -1.74279,0.0419 -2.26139,-0.0554 -2.47433,-0.46414 -0.27579,-0.52941 -0.45474,-7.42952 -0.99273,-38.27718 -0.16883,-9.68 -0.38673,-20.048 -0.48425,-23.04 -0.0975,-2.992 -0.31532,-14.944 -0.48402,-26.56 -1.77286,-108.88326 -1.28107,-106.34634 -6.02003,-388.16 -0.26939,-15.51896 0.0199,-19.30559 1.90502,-24.94032 2.25701,-6.74618 8.16648,-13.96332 12.18665,-14.88338 1.32393,-0.30299 5.24328,-1.72006 7.63718,-2.76127 1.53945,-0.66957 1.87914,-1.33374 2.11615,-4.13757 0.1956,-2.3139 0.2317,-2.39781 1.03571,-2.40764 0.45817,-0.006 1.11257,-0.22159 1.4542,-0.48 0.66066,-0.49969 3.39193,-0.6072 4.49373,-0.17687 0.34919,0.13638 0.85319,0.18477 1.12,0.10753 0.73385,-0.21245 1.99815,-1.91757 1.60294,-2.16182 -0.18353,-0.11343 -0.29412,-0.0335 -0.24576,0.17755 0.0484,0.21109 -0.0921,0.44979 -0.31207,0.53046 -0.6566,0.24075 -0.4636,-0.40385 0.73136,-2.44275 1.03058,-1.75841 2.38864,-5.98565 2.38864,-7.43511 0,-0.32384 0.1608,-0.58881 0.35732,-0.58881 0.22004,0 0.27588,-0.27664 0.14534,-0.72 -0.11659,-0.396 -0.4207,-1.48039 -0.67579,-2.40976 -0.65038,-2.369433 -1.49483,-3.882853 -2.91975,-5.232723 l -1.22712,-1.16249 -3.84,-0.20347 -3.84,-0.20346 -1.00443,2.16595 c -0.5524,1.19141 -1.26269,2.99408 -1.5784,4.006083 -0.44663,1.43171 -0.72081,1.84824 -1.23557,1.87712 -0.54002,0.0303 -0.55868,0.064 -0.10156,0.18346 1.09219,0.28542 0.58893,1.01587 -0.84839,1.23141 -1.97863,0.29671 -2.85293,-0.0322 -2.66727,-1.00348 0.12205,-0.63845 0.0171,-0.76851 -0.62008,-0.76851 -0.60905,0 -0.90293,-0.31302 -1.42704,-1.52 -1.3029,-3.000433 -3.45404,-9.902003 -4.09829,-13.148623 -0.36109,-1.81975 -0.73113,-3.42932 -0.8223,-3.57683 -0.28887,-0.46741 -1.13089,-7.07258 -0.94081,-7.38013 0.10007,-0.16193 0.45871,-0.29442 0.79697,-0.29442 0.38914,0 0.68876,-0.29381 0.81581,-0.8 0.26847,-1.06966 1.0157,-1.01909 1.1822,0.08 l 0.13331,0.88 0.0479,-0.88 c 0.056,-1.02773 1.00794,-1.24692 1.00794,-0.23208 0,0.37928 0.30136,0.7625 0.7268,0.92425 0.72405,0.27529 1.489,1.71281 2.65417,4.98783 0.31308,0.88 0.68524,1.7549 0.82702,1.94422 0.16744,0.22358 1.52198,0.30023 3.8649,0.21869 3.69586,-0.12862 5.78861,-0.58234 4.98871,-1.08156 -0.33858,-0.21132 -0.34333,-0.37519 -0.0241,-0.83224 1.86479,-2.66981 3.28249,-6.74533 3.28249,-9.43634 0,-0.84302 0.13033,-1.53277 0.28962,-1.53277 0.41578,0 -0.52354,-3.39669 -1.46011,-5.28 -0.43763,-0.88 -1.2533,-2.02975 -1.8126,-2.55502 -0.98536,-0.92539 -1.13604,-0.96014 -4.85691,-1.12 -4.46781,-0.19195 -4.2036,-0.34605 -5.47812,3.19502 -1.63498,4.54257 -1.59824,4.48 -2.63086,4.48 -0.74371,0 -0.9849,0.1724 -1.14749,0.82018 -0.16698,0.6653 -0.36992,0.80126 -1.07469,0.72 -0.66753,-0.077 -0.86295,-0.267 -0.84343,-0.82018 0.0221,-0.62513 -0.13524,-0.72 -1.1939,-0.72 -1.48464,0 -1.31289,0.69241 -2.18291,-8.8 -0.37101,-4.048 -0.81312,-8.872 -0.98246,-10.72 -0.16934,-1.847999 -0.3075,-4.403999 -0.30701,-5.679999 8.5e-4,-2.26109 0.0212,-2.32 0.80087,-2.32 0.58667,0 0.8,0.17067 0.8,0.64 0,0.352 0.19369,0.64 0.43041,0.64 0.72049,0 1.37808,1.00786 2.25008,3.44856 0.45756,1.28071 1.05095,2.752099 1.31864,3.269759 l 0.48672,0.9412 2.63707,-0.18377 c 4.56163,-0.3179 5.73948,-0.54816 6.12232,-1.19689 0.26782,-0.45382 0.25674,-0.6368 -0.0452,-0.746659 -0.61102,-0.2223 -0.4848,-0.76024 0.54132,-2.30696 0.51622,-0.77812 1.27161,-2.46753 1.67863,-3.75426 0.74023,-2.34006 1.38268,-2.98542 1.62362,-1.63098 0.0705,0.396 0.0957,-0.144 0.0561,-1.2 -0.0859,-2.29244 -1.002,-5.27593 -2.16166,-7.04 -2.57136,-3.9115 -2.28359,-3.67802 -4.5588,-3.69882 -1.13259,-0.0104 -2.95135,-0.0273 -4.04171,-0.0377 l -1.98246,-0.0188 -0.41269,1.19204 c -0.22698,0.65562 -0.68541,1.64456 -1.01873,2.19764 -0.33332,0.55309 -0.7849,1.58161 -1.0035,2.28561 -0.21861,0.704 -0.52407,1.4168 -0.67881,1.584 -0.15474,0.1672 -0.28135,0.54641 -0.28135,0.84268 0,0.54889 -0.86545,0.9211 -2.16,0.92896 l -0.72,0.004 V 26.671667 c 0,-9.88795 -0.0498,-10.9061 -0.565,-11.5423 l -0.56501,-0.69776 -3.88704,1.4463 c -5.09708,1.89653 -7.10796,2.39581 -10.88866,2.70354 -12.22755,0.99526 -24.96696,-3.87476 -32.73211,-12.5128301 -0.7932,-0.88236 -2.00378,-2.01562 -2.69019,-2.51835 l -1.24795,-0.91406 h 0.91914 c 0.721,0 1.4039,0.50034 3.16801,2.32109 6.20236,6.4015101 11.4065,9.4841301 20.20491,11.9682001 2.92834,0.82677 3.59291,0.89348 8.92396,0.89591 6.44257,0.003 7.0665,-0.1142 13.64301,-2.5612 2.10492,-0.7832 4.17217,-1.424 4.59391,-1.424 1.69313,0 1.76308,0.4853 1.76308,12.23121 0,6.992531 0.11299,10.808791 0.32,10.808791 0.176,0 0.32,-0.34998 0.32,-0.77774 0,-0.55139 0.20068,-0.8075 0.68952,-0.88 0.48037,-0.0712 0.82015,-0.4905 1.1202,-1.38226 0.23688,-0.704 0.7848,-2 1.21761,-2.88 0.4328,-0.88 0.93922,-2.01196 1.12537,-2.51548 l 0.33845,-0.915491 3.43443,0.18483 c 1.88893,0.10166 3.96508,0.18962 4.61367,0.19549 1.24286,0.0112 1.3224,0.091 3.66368,3.675901 1.93671,2.96539 3.0287,8.9766 1.92261,10.58355 -0.23896,0.34716 -0.61845,1.2072 -0.84331,1.9112 -0.41635,1.30353 -1.00829,2.51306 -2.34911,4.799999 -0.85388,1.45642 -1.04191,1.50742 -6.99119,1.89639 -3.9723,0.25972 -3.53401,0.59293 -5.23039,-3.976389 -0.72828,-1.96165 -1.22473,-2.82842 -1.78068,-3.10888 -0.42397,-0.21388 -0.87453,-0.71788 -1.00124,-1.12 -0.26299,-0.83457 -0.0837,3.64789 0.3996,9.988879 0.33269,4.36529 1.51679,15.39469 1.66857,15.54207 0.11156,0.10833 2.36528,0.207 3.85854,0.16894 1.35082,-0.0344 1.22275,0.16439 2.90555,-4.51101 1.32965,-3.69424 0.94265,-3.49009 6.12948,-3.23349 4.37402,0.21638 4.49018,0.2411 5.48555,1.16728 1.16287,1.08203 2.43806,3.48259 2.96743,5.58621 0.19931,0.792 0.51207,1.74041 0.69503,2.10757 0.55071,1.10515 0.14108,5.4937 -0.74414,7.97243 -1.07414,3.00772 -2.61512,5.44708 -3.7,5.85708 -1.38369,0.52292 -9.2344,0.76119 -9.59078,0.29107 -0.16183,-0.21348 -0.54838,-1.10815 -0.859,-1.98815 -0.31061,-0.88 -0.90954,-2.356 -1.33096,-3.28 -0.72749,-1.59512 -0.82704,-1.67977 -1.97034,-1.67563 -0.66228,0.002 -1.54641,0.096 -1.96472,0.20794 -0.72473,0.19397 -0.7513,0.29557 -0.56372,2.15563 0.19336,1.9174 0.77667,4.67626 2.28169,10.79157 0.41684,1.69373 1.45195,4.93315 2.30025,7.1987 1.45368,3.882373 1.59754,4.128543 2.50235,4.282013 0.75923,0.12877 0.98118,0.34655 1.06126,1.0413 0.12167,1.05558 0.93213,1.17489 1.07649,0.15848 0.0628,-0.44243 0.35914,-0.75671 0.76861,-0.81522 0.50236,-0.0718 0.80646,-0.54435 1.23557,-1.920003 0.31307,-1.00363 1.0212,-2.806 1.57364,-4.00527 l 1.00443,-2.1805 4.48,0.21148 4.48,0.21148 1.22712,1.16902 c 1.43652,1.36851 2.28246,2.89486 2.90371,5.239253 0.24628,0.92937 0.60559,2.09513 0.79848,2.59059 0.96227,2.47177 -0.61713,8.61616 -3.0014,11.67648 -0.60274,0.77364 -1.14844,1.56428 -1.21267,1.75699 -0.13288,0.39863 -1.98883,0.43041 -3.98848,0.0683 -1.02674,-0.18593 -1.54518,-0.1193 -2.14874,0.27617 -0.43753,0.28668 -1.13944,0.52123 -1.5598,0.52123 -0.7197,0 -0.77613,0.13993 -0.96697,2.39746 -0.2246,2.65708 -0.58233,3.45676 -1.794,4.01043 -1.85913,0.84952 -7.50419,2.87211 -8.01606,2.87211 -0.89755,0 -4.16119,2.31244 -4.16119,2.9484 0,0.33058 -0.23612,0.57209 -0.56,0.57278 -1.08429,0.002 -5.43953,6.14729 -6.79605,9.58879 -1.37094,3.47812 -2.6483,10.05487 -2.61142,13.44547 1.99282,135.9497 4.09855,271.8974 6.29206,407.84456 0.0975,5.984 0.31002,17 0.4723,24.48 0.16228,7.48 0.39163,19.504 0.50968,26.72 0.11805,7.216 0.25294,13.912 0.29975,14.88 0.0468,0.968 0.10275,4.424 0.1243,7.68 0.0215,3.256 0.15671,6.10523 0.30035,6.33162 0.31064,0.48959 5.22756,0.57002 15.88903,0.25991 12.9201,-0.37581 18.28531,-1.0659 24,-3.08695 9.72021,-3.43764 17.35195,-9.50845 22.30709,-17.74458 0.63532,-1.056 2.18411,-3.9554 3.44175,-6.4431 2.74955,-5.43886 3.84974,-6.80103 6.57772,-8.144 1.91878,-0.94462 2.29551,-1.01485 5.50657,-1.02656 4.1012,-0.015 6.67232,0.74577 10.42443,3.08435 6.61635,4.1238 10.27331,9.64477 11.90242,17.96931 0.73206,3.74072 0.51324,11.73816 -0.4334,15.84 -2.16028,9.36061 -4.26883,14.89478 -11.39972,29.92 -1.64317,3.46226 -4.4098,9.56845 -6.8869,15.2 -3.6486,8.29489 -6.04314,18.86201 -6.06998,26.78693 -0.0301,8.88955 3.29488,20.69117 9.18173,32.58941 1.9994,4.0411 4.22875,8.19578 4.54149,8.46366 0.10274,0.088 0.6188,1.0028 1.1468,2.03288 0.528,1.03008 1.32,2.26922 1.76,2.75363 0.44,0.48441 0.95527,1.29762 1.14504,1.80712 0.54312,1.4582 3.76566,6.20634 4.2122,6.20634 0.22152,0 0.40276,0.2453 0.40276,0.545 0,0.2998 0.71569,1.6318 1.59042,2.96 0.87473,1.3283 3.0006,4.575 4.72416,7.215 3.9561,6.0597 4.24986,6.4812 5.12542,7.3549 0.396,0.3952 0.72,0.8878 0.72,1.0948 0,0.2069 0.27287,0.7664 0.60637,1.2433 1.12524,1.609 6.19017,9.4898 7.5497,11.747 3.80742,6.3215 5.05118,8.5674 8.32913,15.04 1.9609,3.872 4.03794,8.192 4.61564,9.6 0.57771,1.408 1.30589,3.136 1.61818,3.84 1.95197,4.4003 5.76998,16.4092 7.4778,23.52 3.33744,13.8962 4.36318,22.4219 4.36318,36.2659 0,10.2007 -0.25897,13.947 -1.46373,21.1741 -1.73433,10.404 -3.94707,17.7991 -8.46493,28.2904 -0.73076,1.6969 -0.82674,2.2116 -0.55686,2.9858 0.22347,0.641 0.22083,1.1538 -0.008,1.6296 -0.18396,0.3818 -0.69475,1.4862 -1.13508,2.4542 -0.44034,0.968 -1.44532,2.739 -2.23329,3.9355 -1.23149,1.87 -1.40975,2.3464 -1.26939,3.3929 0.25087,1.8703 -1.09264,4.5951 -4.19693,8.5116 -2.24595,2.8337 -3.32667,3.6756 -4.73037,3.685 -0.54562,0 -1.45833,0.8655 -3.46104,3.268 -1.496,1.7947 -3.43766,4.0378 -4.31479,4.9848 -1.4443,1.5592 -1.69468,1.7055 -2.6534,1.5499 -0.96136,-0.156 -1.28521,0.036 -3.52521,2.0886 -8.91574,8.1703 -20.20773,15.9622 -32.0666,22.1271 -5.66244,2.94372 -13.12406,6.17142 -18.31848,7.92422 -12.09405,4.0809 -24.37318,7.1397 -36.56152,9.1076 -12.58694,2.0323 -19.70611,2.7261 -39.76,3.875 -2.61244,0.1496 -2.96,0.2395 -2.96,0.7652 0,0.4401 0.31335,0.6468 1.2,0.7917 3.22179,0.5264 3.23473,0.537 2.7707,2.2655 -0.5421,2.0194 -9.47346,3.4317 -14.22573,2.2494 z M 346.97697,897.93671 c -0.10216,-0.2552 -0.17798,-0.1794 -0.19334,0.1934 -0.0139,0.3373 0.0617,0.5263 0.16807,0.42 0.10634,-0.1064 0.1177,-0.3824 0.0253,-0.6134 z m -0.32,-28.8 c -0.10216,-0.2552 -0.17798,-0.1794 -0.19334,0.1934 -0.0139,0.3373 0.0617,0.5263 0.16807,0.42 0.10634,-0.1064 0.1177,-0.3824 0.0253,-0.6134 z m -0.96667,-2.9 c -0.0888,-0.22 -0.1614,-0.04 -0.1614,0.4 0,0.44 0.0726,0.62 0.1614,0.4 0.0888,-0.22 0.0888,-0.58 0,-0.8 z m -3.19333,-17.58 c -0.10216,-0.2552 -0.17798,-0.1794 -0.19334,0.1934 -0.0139,0.3373 0.0617,0.5263 0.16807,0.42 0.10634,-0.1064 0.1177,-0.3824 0.0253,-0.6134 z m -45.0186,-235.63412 c 0,-0.0371 -0.192,-0.22683 -0.42667,-0.42159 -0.31883,-0.26461 -0.42666,-0.24755 -0.42666,0.0675 0,0.23187 0.192,0.42158 0.42666,0.42158 0.23467,0 0.42667,-0.0304 0.42667,-0.0675 z m -65.7014,-506.44585 c -0.10215,-0.25527 -0.17798,-0.17945 -0.19333,0.19333 -0.0139,0.33734 0.0617,0.52634 0.16807,0.42 0.10633,-0.10633 0.1177,-0.38233 0.0253,-0.61333 z m -6.71276,-35.220003 c -0.0763,-0.396 -0.13868,-0.072 -0.13868,0.72 0,0.792 0.0624,1.116 0.13868,0.72 0.0763,-0.396 0.0763,-1.044 0,-1.44 z m -52.8125,952.506663 c -0.11734,-0.1174 -0.21334,-0.4874 -0.21334,-0.8223 0,-0.9132 1.40868,-0.625 1.54226,0.3156 0.0753,0.5302 -0.0582,0.72 -0.50667,0.72 -0.3349,0 -0.70492,-0.096 -0.82225,-0.2133 z m 1.38666,-3.7867 c 0,-1.8534 0.072,-2.1131 0.56,-2.0191 0.45879,0.088 0.56,0.4533 0.56,2.0191 0,1.5658 -0.10121,1.9307 -0.56,2.0191 -0.48798,0.094 -0.56,-0.1657 -0.56,-2.0191 z m 3.52,-0.024 c 0,-1.8306 0.0727,-2.0896 0.56,-1.9967 0.44923,0.086 0.57885,0.5016 0.65527,2.1034 0.0873,1.83 0.0405,1.9968 -0.56,1.9968 -0.5939,0 -0.65527,-0.197 -0.65527,-2.1035 z m 152.64,-64.29649 c 0,-0.264 0.216,-0.48 0.48,-0.48 0.264,0 0.48,0.216 0.48,0.48 0,0.264 -0.216,0.48 -0.48,0.48 -0.264,0 -0.48,-0.216 -0.48,-0.48 z m 16.98526,-64.8795 c 0.0139,-0.572 0.10333,-0.8437 0.19874,-0.6038 0.14646,0.3683 0.21651,0.3683 0.44984,0 0.18827,-0.2971 0.27792,-0.1047 0.28126,0.6038 0.003,0.7133 -0.14589,1.04 -0.4751,1.04 -0.33339,0 -0.47228,-0.3176 -0.45474,-1.04 z m 0,-4.64 c 0.0176,-0.3904 0.0778,-0.4279 0.19874,-0.1238 0.14646,0.3683 0.21651,0.3683 0.44984,0 0.21628,-0.3413 0.27742,-0.3144 0.28126,0.1238 0.003,0.308 -0.2111,0.56 -0.4751,0.56 -0.264,0 -0.46863,-0.252 -0.45474,-0.56 z m -345.254728,-6.8 c 0,-0.44 0.0726,-0.62 0.16141,-0.4 0.0888,0.22 0.0888,0.58 0,0.8 -0.0888,0.22 -0.16141,0.04 -0.16141,-0.4 z m -0.007,-5.4612 c -0.0238,-2.2117 0.0953,-4.8037 0.2646,-5.76 0.16931,-0.9563 0.37059,-2.6028 0.44729,-3.6588 0.35072,-4.829 3.07326,-16.6031 5.67333,-24.5352 3.20258,-9.7702 6.94962,-18.5091 11.91345,-27.7848 0.7064,-1.32 1.68008,-3.192 2.16375,-4.16 0.48367,-0.968 3.14369,-5.504 5.91117,-10.08 2.76747,-4.576 5.19276,-8.608 5.38954,-8.96 0.19677,-0.352 1.01023,-1.648 1.80769,-2.88 0.79745,-1.232 1.87469,-2.96 2.39385,-3.84 1.80258,-3.0554 6.3984,-10.4726 7.55304,-12.1898 3.47239,-5.1641 10.67556,-18.20483 13.41695,-24.29017 9.66153,-21.4466 13.04174,-43.21707 9.57169,-61.6472 -0.68032,-3.61328 -2.58259,-10.85583 -3.2947,-12.54393 -0.23406,-0.55488 -0.68143,-1.80087 -0.99415,-2.76887 -1.20888,-3.74208 -5.72193,-14.82891 -9.0531,-22.24 -0.79109,-1.76 -1.55517,-3.56 -1.69796,-4 -0.14278,-0.44 -1.0754,-2.744 -2.07248,-5.12 -3.51269,-8.37061 -7.27476,-20.4509 -8.62016,-27.68 -1.4333,-7.70139 -1.58698,-9.49303 -1.59204,-18.56 -0.006,-10.08609 0.40465,-13.50167 2.49846,-20.8 1.38483,-4.82705 5.15706,-13.06812 6.30708,-13.77888 0.1592,-0.0984 0.28945,-0.45839 0.28945,-0.80001 0,-0.34161 0.14655,-0.62111 0.32566,-0.62111 0.17912,0 1.24621,-0.97583 2.37132,-2.1685 1.12511,-1.19268 2.84365,-2.74068 3.81898,-3.44 0.97533,-0.69933 1.78024,-1.4515 1.78869,-1.6715 0.008,-0.22 0.25789,-0.4 0.55432,-0.4 0.29644,0 1.12998,-0.2861 1.85232,-0.63578 1.44332,-0.6987 5.93914,-1.92422 7.059,-1.92422 0.56728,0 0.74973,-0.23839 0.91841,-1.2 0.11577,-0.66 0.33108,-1.81335 0.47848,-2.563 l 0.26799,-1.363 -1.23758,-0.1979 c -1.10606,-0.17687 -1.23759,-0.29631 -1.23759,-1.12386 0,-1.92141 1.84612,-1.94612 10.24,-0.13709 4.43338,0.95547 5.44,1.4288 5.44,2.55799 0,0.94611 -0.59283,1.18494 -2.34511,0.94477 l -1.37005,-0.18779 -0.43673,2.58193 c -0.30813,1.8217 -0.58562,2.62289 -0.94241,2.72103 -0.40795,0.1122 -0.38198,0.18084 0.1343,0.35513 1.3062,0.44093 4,4.98859 4,6.75278 0,0.27177 0.27676,1.10164 0.61502,1.84417 0.52022,1.14195 0.64598,2.40935 0.81589,8.22244 0.28311,9.68636 1.184,15.5721 3.25603,21.2724 0.44783,1.232 0.89693,2.5213 0.99799,2.8651 0.10107,0.34381 0.80731,1.89676 1.56942,3.451 0.76211,1.55424 1.38565,2.90671 1.38565,3.0055 0,0.0988 0.267,0.56183 0.59334,1.029 0.32633,0.46717 0.69431,1.2814 0.81772,1.8094 0.49745,2.12828 5.99399,9.05676 10.407968,13.1194 0.95646,0.88033 2.35211,2.2126 3.10144,2.9606 0.74934,0.748 1.45503,1.36 1.56822,1.36 0.11318,0 1.16553,0.84371 2.33855,1.8749 4.41724,3.88318 13.333,9.36689 19.63761,12.07829 5.24916,2.25749 12.3504,4.60681 13.92488,4.60681 0.15569,0 0.31194,-1.476 0.34721,-3.28 0.0353,-1.804 0.20589,-10.48 0.37915,-19.28 0.17326,-8.8 0.45672,-26.944 0.62991,-40.32 0.17319,-13.376 0.39574,-28.208 0.49455,-32.96 2.93435,-123.23362 3.21248,-246.51717 5.5216,-369.76 0.28992,-14.6266 0.2594,-17.3584 -0.23054,-20.64 -0.98032,-6.56611 -4.2187,-13.05596 -8.70143,-17.43801 -2.26617,-2.21528 -7.62264,-5.66293 -8.56187,-5.51079 -0.81308,0.1317 -3.27072,-1.00641 -4.08699,-1.89263 -0.89174,-0.96818 -1.38131,-2.26515 -1.38131,-3.6594 0,-1.23409 0.11855,-1.19266 -3.15818,-1.1036 -1.54561,0.042 -2.70339,-0.1 -3.36,-0.41205 -0.551,-0.26188 -1.36182,-0.64111 -1.80182,-0.84273 -1.04949,-0.48091 -1.99063,-1.96288 -2.86514,-4.51158 -0.3905,-1.13807 -0.85381,-2.33883 -1.02959,-2.66836 -0.17578,-0.32953 -0.39515,-1.33753 -0.48749,-2.24 -0.37818,-3.69613 3.0821,-12.371803 4.75952,-11.933143 0.35961,0.094 0.5827,-0.0199 0.5827,-0.29766 0,-0.33432 0.47312,-0.45054 1.84,-0.45196 1.012,-0.001 3.028,-0.0944 4.48,-0.20743 2.18598,-0.17017 2.64,-0.12582 2.64,0.25791 0,0.25489 0.18,0.64229 0.4,0.8609 0.22,0.2186 0.84142,1.7234 1.38093,3.344 0.72653,2.182323 1.16571,3.029533 1.69336,3.266533 0.39182,0.176 0.79559,0.65027 0.89725,1.05394 0.22592,0.89708 0.86976,0.75964 1.01297,-0.21625 0.0575,-0.39169 0.43961,-0.83957 0.84917,-0.99528 0.96002,-0.365 2.15975,-3.441723 4.46442,-11.449083 0.94875,-3.29633 1.80582,-6.20933 1.90461,-6.47333 0.0988,-0.264 0.32017,-1.90171 0.49195,-3.63935 0.26017,-2.6317 0.23492,-3.23677 -0.15116,-3.62286 -0.25493,-0.25492 -0.4635,-0.59721 -0.4635,-0.76064 0,-0.16343 -0.216,-0.29715 -0.48,-0.29715 -0.31537,0 -0.48,0.31556 -0.48,0.92 0,0.75129 -0.16407,0.95282 -0.89465,1.09893 -0.50255,0.10051 -1.04987,0.50373 -1.24881,0.92 -0.68065,1.42429 -1.69425,4.26994 -1.90266,5.34173 l -0.21015,1.08065 -4.67186,-0.21971 -4.67187,-0.21972 -0.88122,-1.02094 c -0.93033,-1.07784 -2.63563,-4.42058 -3.62255,-7.10094 -0.66714,-1.8119 -0.78738,-4.82825 -0.23763,-5.96152 0.20236,-0.41716 0.53091,-1.46183 0.7301,-2.32148 0.68252,-2.94557 2.61055,-6.10506 3.57207,-5.85361 0.35087,0.0917 0.59923,-0.01 0.59923,-0.24543 0,-0.40471 3.8041,-0.81796 7.52975,-0.81796 h 1.67143 l 0.64556,1.52 c 0.35506,0.836 0.90931,2.36773 1.23167,3.40385 0.39171,1.25901 0.88055,2.10153 1.47385,2.54018 0.48825,0.36098 0.88774,0.92781 0.88774,1.25962 0,0.89476 1.05263,0.56107 1.27862,-0.40533 0.13189,-0.56401 0.43503,-0.82743 1.03282,-0.89752 0.62606,-0.0734 0.89098,-0.32311 1.01852,-0.96 0.33695,-1.68266 1.13276,-8.948 1.61902,-14.7808 0.27144,-3.256 0.54728,-6.531999 0.61297,-7.279999 0.0826,-0.94085 -0.004,-1.36 -0.28208,-1.36 -0.60888,0 -1.00385,0.62599 -1.61526,2.56 -0.30603,0.968 -0.90288,2.535849 -1.32635,3.484109 l -0.76994,1.72411 -4.50156,-0.2285 c -2.47586,-0.12568 -4.66474,-0.29178 -4.86417,-0.36912 -0.19942,-0.0773 -0.64408,-0.60636 -0.98811,-1.17561 -1.6379,-2.710069 -1.98884,-3.353589 -2.3968,-4.394989 -0.24131,-0.616 -0.71588,-1.75016 -1.0546,-2.52036 -0.45568,-1.03615 -0.57692,-1.86843 -0.46614,-3.2 0.2529,-3.03998 2.25114,-8.99964 3.01752,-8.99964 0.22304,0 0.40554,-0.216 0.40554,-0.48 0,-0.27382 0.28777,-0.48 0.66995,-0.48 0.40084,0 0.73719,-0.25708 0.83733,-0.64 0.11854,-0.45332 0.43648,-0.64 1.09004,-0.64 0.50747,0 0.92268,-0.108 0.92268,-0.24 0,-0.132 1.5812,-0.24 3.51377,-0.24 4.16634,0 4.0523,-0.0906 5.64133,4.48 0.78622,2.26142 1.1435,2.90141 1.66342,2.97968 0.36417,0.0548 0.71782,0.34283 0.7859,0.64 0.31096,1.35756 0.62296,-8.384741 0.43873,-13.699681 -0.71858,-20.7305101 -0.73328,-20.1637201 0.52294,-20.1551001 0.5746,0.004 0.62024,0.0641 0.23391,0.30807 -0.57962,0.36607 -0.64105,6.07169 -0.19472,18.0870301 0.1569,4.224 0.17793,9.804001 0.0467,12.400001 l -0.23855,4.72 h -1.09677 c -0.76104,0 -1.15317,-0.17142 -1.281,-0.56 -0.10132,-0.308 -0.36754,-0.992 -0.59161,-1.52 -0.22407,-0.528 -0.65846,-1.752 -0.96531,-2.72 -0.30685,-0.968 -0.84934,-2.29061 -1.20555,-2.93915 l -0.64764,-1.17914 -2.99351,-0.10086 c -1.64643,-0.0555 -2.99319,0.007 -2.99279,0.13915 3.9e-4,0.132 -0.43128,0.24 -0.95928,0.24 -0.528,0 -0.96,0.14709 -0.96,0.32687 0,0.69156 -1.71302,2.87313 -2.25606,2.87313 -0.60068,0 -1.15408,1.1824 -2.0968,4.48 -0.71976,2.51773 -0.85936,3.88453 -0.49026,4.8 0.31296,0.77623 0.32315,0.77861 0.34283,0.08 0.031,-1.10117 0.8704,-0.85615 1.09625,0.32 0.10984,0.572 0.29398,1.45958 0.40919,1.9724 0.17158,0.76366 0.11849,0.89748 -0.29332,0.73945 -0.63512,-0.24372 1.10085,3.00038 2.48817,4.649749 l 0.96,1.14134 3.90556,0.21574 3.90557,0.21575 0.64648,-1.38721 c 0.35559,-0.76297 0.97871,-2.395219 1.38474,-3.627219 0.51063,-1.5494 0.95163,-2.33505 1.43041,-2.54832 0.3807,-0.16958 0.77482,-0.63758 0.87582,-1.04 0.101,-0.40242 0.41545,-0.73168 0.69876,-0.73168 0.45412,0 0.48942,0.38846 0.29802,3.28 -0.50284,7.596459 -1.83222,21.108649 -2.28251,23.199999 -0.11013,0.51154 -0.38488,0.72 -0.94892,0.72 -0.43665,0 -0.7939,0.144 -0.7939,0.32 0,0.176 0.36,0.32 0.8,0.32 0.46783,0 0.8,0.18382 0.8,0.44273 0,0.30716 -0.61591,0.50867 -2.01148,0.65813 -2.47687,0.26525 -3.74852,-0.13809 -3.74852,-1.18894 0,-0.40915 -0.1263,-0.88072 -0.28067,-1.04792 -0.15437,-0.1672 -0.53207,-1.096 -0.83934,-2.064 -0.30727,-0.968 -0.85518,-2.4637 -1.21758,-3.32378 l -0.6589,-1.56378 -2.87092,0.20378 c -1.579,0.11208 -3.31679,0.2069 -3.86175,0.21071 -0.80094,0.006 -1.08284,0.20493 -1.47084,1.04 -0.33536,0.72177 -0.73442,1.06255 -1.3243,1.13088 -0.68366,0.0792 -1.00028,0.44541 -1.66419,1.92479 -0.45094,1.00484 -0.91793,2.44002 -1.03774,3.18929 -0.11981,0.74926 -0.34292,1.43961 -0.49581,1.53409 -0.15288,0.0945 -0.27796,0.6505 -0.27796,1.23559 0,0.79467 0.16191,1.10613 0.64,1.23115 0.45009,0.11771 0.64053,0.43738 0.64178,1.07733 9.8e-4,0.50047 0.16028,1.48085 0.354,2.17862 0.23972,0.86345 0.24673,1.30383 0.0219,1.37876 -0.41234,0.13745 1.24856,3.39436 2.42981,4.7647 0.87093,1.01035 0.87963,1.01252 4.95247,1.23222 3.83328,0.20679 4.08083,0.18429 4.09376,-0.37212 0.0226,-0.97093 1.70286,-5.48082 2.30334,-6.18213 0.30615,-0.35755 0.84604,-0.6501 1.19976,-0.6501 0.50126,0 0.64314,-0.21177 0.64314,-0.96 0,-0.88381 0.0889,-0.96 1.12,-0.96 0.616,0 1.12,0.13372 1.12,0.29715 0,0.16343 0.2299,0.52705 0.5109,0.80804 0.45447,0.45447 0.46931,0.94208 0.13437,4.41488 -0.20709,2.14719 -0.44045,4.00741 -0.51858,4.13383 -0.0781,0.12642 -0.91846,2.93892 -1.86739,6.25 -2.29537,8.00921 -3.66565,11.616103 -4.41302,11.616103 -0.48717,0 -0.51395,0.0925 -0.18111,0.62545 0.50176,0.80344 0.34982,0.92991 -1.40637,1.17063 -1.33522,0.18301 -1.4658,0.13857 -1.64136,-0.55863 -0.10491,-0.4166 -0.51133,-0.90145 -0.90315,-1.07745 -0.52765,-0.237 -0.96683,-1.08421 -1.69336,-3.266533 -0.53951,-1.6206 -1.16093,-3.1254 -1.38093,-3.344 -0.22,-0.21861 -0.4,-0.60472 -0.4,-0.85804 0,-0.3679 -0.33803,-0.41997 -1.68,-0.25878 -0.924,0.11099 -2.63521,0.20304 -3.80268,0.20457 -1.8523,0.002 -2.144,0.0843 -2.29004,0.64278 -0.0979,0.37427 -0.43649,0.64 -0.81554,0.64 -1.0314,0 -2.82304,2.95257 -3.51875,5.798803 -0.1988,0.81334 -0.45146,1.71334 -0.56146,2 -0.1286,0.33513 -0.033,0.5212 0.26782,0.5212 0.34649,0 0.51494,0.56202 0.64949,2.16696 0.0999,1.19183 0.55512,3.15912 1.01155,4.37175 0.45644,1.21264 0.75181,2.45077 0.65639,2.75142 -0.10356,0.3263 0.12683,0.83567 0.57161,1.26375 1.25354,1.20649 3.04907,1.73065 5.99161,1.74908 1.496,0.009 2.88894,0.1267 3.09542,0.26073 0.20937,0.13592 0.35122,0.869 0.3207,1.65748 -0.09,2.32531 1.67254,4.16207 4.43048,4.61707 1.67378,0.27613 5.6988,2.55642 8.35643,4.73414 4.41905,3.62107 8.36333,10.92108 9.62037,17.80523 -0.17879,145.7151 -3.63387,291.60316 -5.81541,437.34239 -0.41609,28.22979 -0.91243,50.74156 -1.12394,50.97739 -0.12696,0.14157 -1.72781,-0.11826 -3.55745,-0.5774 -7.21452,-1.81045 -16.39494,-5.84941 -22.81616,-10.03805 -1.24874,-0.81458 -2.50185,-1.62525 -2.78469,-1.80149 -2.43907,-1.51989 -7.32293,-5.3765 -7.59242,-5.99546 -0.0587,-0.13474 -0.24702,-0.24499 -0.41855,-0.24499 -0.17154,0 -0.9227,-0.612 -1.66925,-1.36 -0.74655,-0.748 -2.10238,-2.03039 -3.01297,-2.84976 -4.155808,-3.73955 -10.005808,-11.10962 -10.501468,-13.23024 -0.12341,-0.528 -0.46558,-1.32 -0.76038,-1.76 -0.74982,-1.11913 -2.9725,-5.91353 -4.0055,-8.64 -2.12704,-5.61404 -3.68228,-13.27737 -3.68745,-18.16969 -0.004,-3.71544 -0.36328,-6.47031 -0.844,-6.47031 -0.23855,0 -0.43373,-0.288 -0.43373,-0.64 0,-0.35556 0.21334,-0.64 0.48,-0.64 0.7396,0 0.6291,-3.64637 -0.16,-5.28 -0.34005,-0.704 -0.62317,-1.5266 -0.62914,-1.828 -0.0265,-1.33966 -1.44783,-4.24751 -2.69384,-5.51142 -1.9794,-2.00782 -2.88039,-2.51462 -4.02401,-2.26344 -0.73797,0.16209 -0.97301,0.10064 -0.97301,-0.25439 0,-0.25746 0.2612,-0.53641 0.58043,-0.61989 0.44106,-0.11534 0.7198,-0.81586 1.1608,-2.91732 0.47906,-2.28282 0.68496,-2.76554 1.17957,-2.76554 0.72172,0 0.74949,0.63483 0.14999,3.42869 -0.44835,2.08943 -0.40378,2.33131 0.42957,2.33131 0.37822,0 0.61733,-0.54633 0.90667,-2.07159 0.50589,-2.66683 0.495,-3.04841 -0.087,-3.04841 -0.58825,0 -0.65904,-1.48682 -0.08,-1.68038 0.22,-0.0735 0.004,-0.20957 -0.48,-0.30229 -0.61161,-0.11716 -0.88,-0.0357 -0.88,0.26704 0,0.25134 -0.33844,0.43563 -0.8,0.43563 -0.58667,0 -0.8,-0.17067 -0.8,-0.64 0,-0.352 -0.20423,-0.64 -0.45383,-0.64 -0.24961,0 -0.64895,-0.0749 -0.88743,-0.16639 -0.26764,-0.1027 -0.56726,0.18771 -0.78279,0.7587 -0.31335,0.83016 -0.28796,0.90907 0.24743,0.76906 0.72134,-0.18863 0.72202,-0.0456 0.0154,3.27475 -0.42649,2.00401 -0.67478,2.58131 -1.14952,2.67274 -0.55192,0.10629 -0.5882,-0.035 -0.40966,-1.59612 0.10773,-0.94201 0.29357,-2.26095 0.41298,-2.93098 0.19053,-1.06919 0.13331,-1.24014 -0.46773,-1.39732 -0.50218,-0.13132 -0.68483,-0.42785 -0.68483,-1.11181 0,-1.08847 -0.66293,-1.46133 -1.8513,-1.04124 -1.28731,0.45508 -1.1832,0.98211 0.23892,1.20951 1.48008,0.23668 1.49491,0.29667 0.83989,3.3991 -0.24372,1.15435 -0.31196,2.12747 -0.15333,2.18667 0.5574,0.20802 0.27592,1.01333 -0.35418,1.01333 -0.35556,0 -0.64,0.21333 -0.64,0.48 0,0.57736 -1.80114,0.67659 -1.99013,0.10963 -0.20985,-0.62956 -4.6605,0.92139 -7.28987,2.54036 -2.59214,1.59604 -8.75299,7.44372 -8.08,7.66928 0.70007,0.23464 0.47262,1.13437 -0.23968,0.94809 -0.35183,-0.092 -0.72033,-0.0368 -0.81889,0.12268 -0.0986,0.15948 -0.0267,0.28996 0.15968,0.28996 0.18639,0 0.33889,0.23279 0.33889,0.51732 0,0.35402 -0.1955,0.4662 -0.61934,0.35536 -0.70191,-0.18355 -1.01799,0.35546 -0.76832,1.31021 0.12572,0.48074 -0.006,0.67163 -0.51877,0.75086 -1.39882,0.21623 -4.72542,9.08418 -6.1019,16.26625 -1.80584,9.42241 -1.63669,20.81537 0.47509,32 1.40849,7.45978 5.14134,19.47218 8.65127,27.84 0.99662,2.376 1.92846,4.68 2.07074,5.12 0.14228,0.44 0.79724,1.952 1.45546,3.36 2.29384,4.90678 7.77113,18.4164 9.73048,24 1.7098,4.87249 3.34455,11.12046 4.14445,15.84 0.58903,3.47541 0.8094,5.881 1.15759,12.63647 0.19041,3.6942 -0.59411,12.93186 -1.6105,18.96353 -0.13486,0.80027 -0.0613,1.04 0.31925,1.04 0.27197,0 0.4945,0.23279 0.4945,0.51732 0,0.34658 -0.19622,0.46601 -0.5945,0.36186 -0.51375,-0.13435 -0.66872,0.19742 -1.14096,2.44268 -1.9097,9.07959 -5.82191,20.02262 -10.76401,30.10854 -1.37583,2.80782 -2.06433,4.54837 -1.85127,4.68005 0.56639,0.35005 -0.0287,1.64958 -0.67765,1.47987 -0.42539,-0.11124 -0.87259,0.37476 -1.79363,1.94925 -0.8026,1.37203 -1.09398,2.14177 -0.84247,2.2256 0.55316,0.18439 0.47467,1.03483 -0.0955,1.03483 -0.264,0 -0.48037,-0.18 -0.48082,-0.4 -4.5e-4,-0.22 -0.51889,0.45919 -1.15209,1.50927 -0.6754,1.1201 -1.00574,1.9579 -0.79918,2.0267 0.51767,0.1726 0.42943,1.344 -0.10124,1.344 -0.24933,0 -0.51412,-0.18 -0.58842,-0.4 -0.0743,-0.22 -0.39454,0.104 -0.71166,0.72 -0.31713,0.616 -0.99526,1.732 -1.50696,2.48 -0.71168,1.0403 -0.81393,1.36 -0.435,1.36 0.60234,0 0.62448,0.6031 0.0499,1.36 -0.46708,0.6153 -1.04136,0.7341 -1.20788,0.2498 -0.0893,-0.2596 -1.00207,1.1235 -5.06193,7.6702 -1.78203,2.8736 -4.92676,7.9764 -5.22523,8.4787 -0.20873,0.3512 -0.64131,1.0352 -0.96129,1.52 -0.50593,0.7664 -0.51636,0.8813 -0.08,0.8813 0.27598,0 0.50179,0.216 0.50179,0.48 0,0.5334 -0.84495,0.6652 -1.01393,0.1583 -0.059,-0.177 -0.71414,0.687 -1.45588,1.92 -0.94445,1.5699 -1.208,2.2417 -0.8794,2.2417 0.25806,0 0.46921,0.216 0.46921,0.48 0,0.5598 -0.84888,0.6534 -1.02886,0.1135 -0.0672,-0.2016 -1.22395,1.4904 -2.57054,3.76 -2.71367,4.5737 -3.03618,5.2465 -2.51484,5.2465 0.19483,0 0.35424,0.216 0.35424,0.48 0,0.5602 -0.84895,0.6532 -1.0291,0.1127 -0.0673,-0.202 -0.67179,0.698 -1.34322,2 -0.67144,1.3021 -1.76246,3.3753 -2.4245,4.6073 -2.19156,4.0783 -3.84318,7.4292 -3.84318,7.7971 0,0.1996 0.144,0.3629 0.32,0.3629 0.176,0 0.32,0.2328 0.32,0.5174 0,0.3593 -0.19495,0.4663 -0.63846,0.3503 -0.74329,-0.1944 -0.89184,0.096 -4.05995,7.9323 -1.67457,4.1422 -4.58159,12.2857 -4.58159,12.8346 0,0.069 0.216,0.1254 0.48,0.1254 0.264,0 0.48,0.216 0.48,0.48 0,0.5761 -0.9512,0.6537 -0.98029,0.08 -0.041,-0.8086 -0.70197,1.3322 -2.05221,6.6467 -1.88078,7.4027 -3.08888,14.9714 -3.98303,24.9533 l -0.25798,2.88 z m 80.09657,-333.13142 c -0.25071,-0.40567 -2.14357,-1.24735 -2.80516,-1.24735 -0.30308,0 -0.39692,0.25624 -0.29298,0.8 0.13856,0.7248 0.30161,0.8 1.73451,0.8 1.07053,0 1.51116,-0.11395 1.36363,-0.35265 z m -10.05982,-2.06624 c 0,-0.27438 -0.14634,-0.40843 -0.32522,-0.29788 -0.17887,0.11054 -0.24237,0.33504 -0.14111,0.49888 0.27432,0.44386 0.46633,0.36109 0.46633,-0.201 z M 115.62449,105.91674 c -0.0763,-0.396 -0.13868,-0.072 -0.13868,0.72 0,0.792 0.0624,1.116 0.13868,0.72 0.0763,-0.396 0.0763,-1.044 0,-1.44 z m -0.64525,-0.16 c -0.0805,-0.308 -0.14634,-0.056 -0.14634,0.56 0,0.616 0.0658,0.868 0.14634,0.56 0.0805,-0.308 0.0805,-0.812 0,-1.12 z m 7.99801,-30.540003 c -0.10215,-0.25527 -0.17798,-0.17944 -0.19333,0.19334 -0.0139,0.33733 0.0617,0.52633 0.16807,0.42 0.10633,-0.10634 0.1177,-0.38234 0.0253,-0.61334 z m 20.17474,-4.93333 c -0.10633,-0.10633 -0.38233,-0.1177 -0.61333,-0.0253 -0.25528,0.10215 -0.17945,0.17798 0.19333,0.19333 0.33733,0.0139 0.52633,-0.0617 0.42,-0.16807 z M 17.478382,819.11671 c 0,-0.264 0.216,-0.48 0.48,-0.48 0.264,0 0.48,0.216 0.48,0.48 0,0.264 -0.216,0.48 -0.48,0.48 -0.264,0 -0.48,-0.216 -0.48,-0.48 z m 47.99999,-88.95987 c 0,-0.264 0.216,-0.48 0.48,-0.48 0.264,0 0.48,0.216 0.48,0.48 0,0.264 -0.216,0.48 -0.48,0.48 -0.264,0 -0.48,-0.216 -0.48,-0.48 z m 170.317908,-87.84 C 0,0 0,0 235.79628,642.31684 Z m 9.20209,-1.44003 c 0,-0.49778 0.18134,-0.8 0.48,-0.8 0.29867,0 0.48,0.30222 0.48,0.8 0,0.49778 -0.18133,0.8 -0.48,0.8 -0.29866,0 -0.48,-0.30222 -0.48,-0.8 z m 0.5386,-0.22 c -0.10215,-0.25527 -0.17798,-0.17945 -0.19333,0.19333 -0.0139,0.33734 0.0617,0.52634 0.16807,0.42 0.10633,-0.10633 0.1177,-0.38233 0.0253,-0.61333 z m -100.69859,-6.82 c 0,-4.15281 3.47977,1.12 0.48,1.12 -0.33524,0 -0.48,-0.33778 -0.48,-1.12 z m 55.67999,-0.64 c 0,-0.264 0.216,-0.48 0.48,-0.48 0.264,0 0.48,0.216 0.48,0.48 0,0.264 -0.216,0.48 -0.48,0.48 -0.264,0 -0.48,-0.216 -0.48,-0.48 z m 0,-10.56 c 0,-0.78222 0.14477,-1.12 0.48,-1.12 0.33524,0 0.48,0.33778 0.48,1.12 0,0.78222 -0.14476,1.12 -0.48,1.12 -0.33523,0 -0.48,-0.33778 -0.48,-1.12 z m -55.35999,-0.64 C 0,0 0,0 145.15838,621.99681 Z m 0.10444,-11.23972 c 0.77662,-4.78561 3.01861,1.15965 0.33369,1.15965 -0.42111,0 -0.48554,-0.22391 -0.33369,-1.15965 z m 54.93555,0.0397 c 0,-0.78222 0.14477,-1.12 0.48,-1.12 0.33524,0 0.48,0.33778 0.48,1.12 0,0.78222 -0.14476,1.12 -0.48,1.12 -0.33523,0 -0.48,-0.33778 -0.48,-1.12 z m -2.24,0 c 0,-0.264 0.216,-0.48 0.48,-0.48 0.264,0 0.48,0.216 0.48,0.48 0,0.264 -0.216,0.48 -0.48,0.48 -0.264,0 -0.48,-0.216 -0.48,-0.48 z m 2.24,-11.84005 c 0,-0.264 0.216,-0.48 0.48,-0.48 0.264,0 0.48,0.216 0.48,0.48 0,0.264 -0.216,0.48 -0.48,0.48 -0.264,0 -0.48,-0.216 -0.48,-0.48 z m -54.71999,-0.96 C 0,0 0,0 145.47838,597.99674 Z m 54.71999,-0.48 c 0,-0.35556 0.21334,-0.64 0.48,-0.64 0.26667,0 0.48,0.28444 0.48,0.64 0,0.35556 -0.21333,0.64 -0.48,0.64 -0.26666,0 -0.48,-0.28444 -0.48,-0.64 z m -0.32,-12.48 c 0,-0.92444 0.13334,-1.28 0.48,-1.28 0.34667,0 0.48,0.35556 0.48,1.28 0,0.92444 -0.13333,1.28 -0.48,1.28 -0.34666,0 -0.48,-0.35556 -0.48,-1.28 z m 0.53193,-0.4 c -0.0888,-0.22 -0.1614,-0.04 -0.1614,0.4 0,0.44 0.0726,0.62 0.1614,0.4 0.0888,-0.22 0.0888,-0.58 0,-0.8 z m -0.37193,-15.28003 c 0.264,0 0.48197,0.252 0.48437,0.56 0.002,0.308 0.0912,0.884 0.19733,1.28 0.83253,3.10658 -2.48325,-1.84 -0.6817,-1.84 z m -120.159998,-5.92 c 0,-0.264 0.216,-0.48 0.48,-0.48 0.264,0 0.48,0.216 0.48,0.48 0,0.264 -0.216,0.48 -0.48,0.48 -0.264,0 -0.48,-0.216 -0.48,-0.48 z m 120.639998,-7.52 C 0,0 0,0 200.51837,555.91671 Z m -147.766658,-1.34 c 0.19778,-0.59335 0.88666,-0.69176 0.88666,-0.12667 0,0.27867 -0.228,0.50667 -0.50666,0.50667 -0.27867,0 -0.44967,-0.171 -0.38,-0.38 z M 128.19838,115.62062 c 0,-0.77211 2.93954,-6.10391 3.36521,-6.10391 0.26113,0 0.47479,0.23739 0.47479,0.52754 0,0.86955 -2.87676,5.87246 -3.37676,5.87246 -0.25479,0 -0.46324,-0.13324 -0.46324,-0.29609 z m 89.56723,-0.90593 c -0.28202,-0.48289 -1.32602,-2.19628 -2.32,-3.80752 -0.99398,-1.61125 -1.80724,-3.09727 -1.80724,-3.30226 0,-0.6805 1.43457,-0.20624 1.53651,0.50796 0.0531,0.37189 0.44909,0.8368 0.88,1.03314 0.43092,0.19634 0.78349,0.52328 0.78349,0.72654 0,0.20326 0.504,1.35852 1.12,2.56725 0.616,1.20872 1.12,2.41351 1.12,2.6773 0,0.77803 -0.75928,0.54528 -1.31276,-0.40241 z m -86.36723,-7.59795 c 0,-0.264 0.216,-0.48 0.48,-0.48 0.264,0 0.48,0.216 0.48,0.48 0,0.264 -0.216,0.48 -0.48,0.48 -0.264,0 -0.48,-0.216 -0.48,-0.48 z m 9.92,-33.920043 c 0,-0.264 0.216,-0.48 0.48,-0.48 0.264,0 0.48,0.216 0.48,0.48 0,0.264 -0.216,0.48 -0.48,0.48 -0.264,0 -0.48,-0.216 -0.48,-0.48 z"
       id="path1" />
  </g>
</svg>
